<svg width="11" height="11" viewBox="0 0 11 11" fill="none" xmlns="http://www.w3.org/2000/svg">
<path d="M10.5599 4.27339L7.3165 3.80202L5.86662 0.862643C5.82701 0.782164 5.76187 0.717015 5.68139 0.677415C5.47955 0.577775 5.23428 0.660808 5.13337 0.862643L3.68348 3.80202L0.440075 4.27339C0.350655 4.28617 0.268899 4.32832 0.206304 4.39219C0.130631 4.46997 0.0889322 4.57461 0.0903693 4.68312C0.0918065 4.79163 0.136263 4.89512 0.213969 4.97087L2.56062 7.25876L2.00621 10.4894C1.99321 10.5645 2.00152 10.6418 2.03021 10.7125C2.0589 10.7832 2.10682 10.8444 2.16853 10.8892C2.23024 10.934 2.30327 10.9606 2.37935 10.9661C2.45542 10.9715 2.53149 10.9555 2.59894 10.9199L5.49999 9.39463L8.40104 10.9199C8.48025 10.962 8.57222 10.9761 8.66036 10.9608C8.88264 10.9224 9.0321 10.7117 8.99377 10.4894L8.43937 7.25876L10.786 4.97087C10.8499 4.90828 10.892 4.82652 10.9048 4.7371C10.9393 4.51355 10.7835 4.30661 10.5599 4.27339Z" fill="#F1E81B"/>
</svg>
